<?xml version="1.0" standalone="no"?>
<!DOCTYPE svg PUBLIC "-//W3C//DTD SVG 20010904//EN"
 "http://www.w3.org/TR/2001/REC-SVG-20010904/DTD/svg10.dtd">
<svg version="1.0" xmlns="http://www.w3.org/2000/svg"
 width="202.000000pt" height="204.000000pt" viewBox="0 0 202.000000 204.000000"
 preserveAspectRatio="xMidYMid meet">

<g transform="translate(0.000000,204.000000) scale(0.100000,-0.100000)"
fill="#000000" stroke="none">
<path d="M980 1950 c0 -88 0 -90 -24 -90 -15 0 -26 -7 -29 -20 -3 -14 -14 -20
-31 -20 -25 0 -26 -2 -26 -65 l0 -65 30 0 30 0 0 -285 0 -284 -38 -12 c-22 -6
-42 -20 -48 -32 -5 -12 -24 -25 -44 -30 -41 -11 -50 -21 -50 -64 0 -38 5 -39
75 -17 28 8 118 35 200 60 240 72 215 59 215 109 l0 43 -37 -10 c-30 -8 -38
-7 -45 6 -7 12 -14 13 -34 6 -57 -22 -55 -32 -52 248 l3 257 408 3 407 2 0 65
0 65 -406 0 c-394 0 -406 1 -411 19 -3 11 -15 21 -27 23 -19 3 -21 10 -24 91
-3 79 -5 87 -22 87 -18 0 -20 -7 -20 -90z"/>
<path d="M400 1509 c-135 -39 -255 -77 -267 -85 -22 -14 -23 -20 -23 -157 l0
-143 268 -114 c147 -62 270 -115 275 -117 4 -2 7 151 7 341 0 190 -3 346 -7
346 -5 -1 -118 -32 -253 -71z"/>
<path d="M1340 1240 c0 -265 3 -340 13 -340 6 0 130 50 275 111 l262 112 0
142 c0 123 -2 144 -17 157 -14 12 -502 158 -527 158 -3 0 -6 -153 -6 -340z"/>
<path d="M1055 953 c-44 -14 -107 -33 -139 -42 -40 -12 -62 -24 -66 -37 -4
-11 -26 -26 -51 -34 -37 -13 -44 -20 -47 -45 -4 -52 7 -57 74 -36 32 11 93 29
134 41 41 12 86 25 100 30 14 5 60 19 103 31 l77 22 0 44 c0 47 3 46 -56 28
-14 -4 -24 0 -28 10 -7 18 -2 19 -101 -12z"/>
<path d="M988 727 c-105 -32 -138 -46 -138 -59 0 -10 -14 -21 -37 -28 -49 -16
-51 -18 -58 -63 -5 -31 -3 -37 12 -37 10 0 119 31 243 68 l225 69 3 42 3 43
-40 -7 c-27 -4 -41 -3 -41 4 0 17 -26 12 -172 -32z"/>
<path d="M110 559 c0 -114 14 -139 98 -177 150 -68 759 -324 782 -328 18 -4
149 47 445 174 486 207 455 184 455 331 0 98 19 96 -165 18 -71 -30 -191 -81
-265 -112 -132 -56 -136 -58 -165 -107 -35 -59 -92 -109 -161 -140 -76 -35
-200 -32 -276 5 -64 31 -131 94 -158 147 -17 34 -31 42 -217 119 -109 46 -234
99 -277 117 -44 19 -83 34 -88 34 -4 0 -8 -36 -8 -81z"/>
<path d="M995 527 c-55 -16 -102 -31 -104 -33 -5 -4 82 -204 89 -204 6 0 123
261 118 264 -1 2 -48 -11 -103 -27z"/>
</g>
</svg>
